<svg width="347" height="215" viewBox="0 0 347 215" fill="none" xmlns="http://www.w3.org/2000/svg">
<path d="M20.0401 146.713C10.3949 146.713 5.93994 153.748 5.93994 160.547C5.93994 167.343 10.149 174.141 20.0401 174.141C23.6296 174.141 27.4625 172.689 30.1891 170.136L34.3889 174.141C30.4351 177.902 25.3566 179.727 20.0388 179.727C6.1846 179.727 0 170.378 0 160.547C0 150.715 6.43057 141.01 20.0388 141.01C25.1094 141.01 30.0602 142.833 34.0219 146.713L29.9405 150.599C27.2152 147.922 23.6296 146.713 20.0401 146.713ZM37.8574 178.875V141.494H44.0367V173.287H64.0755V178.874H37.8574V178.875ZM87.4671 179.727C74.2232 179.727 67.911 170.253 67.911 160.42C67.911 149.018 76.0752 140.883 87.4671 140.883C100.572 140.883 106.997 150.23 106.997 160.42C106.997 170.496 100.679 179.727 87.4671 179.727ZM87.575 146.35C78.8018 146.35 73.9772 152.41 73.9772 160.546C74.0969 167.1 78.0574 174.255 87.4671 174.255C96.9821 174.255 100.936 167.703 100.936 160.546C100.936 153.625 96.8571 146.469 87.575 146.35ZM126.778 179.598C118.249 179.356 111.076 174.013 111.076 163.454V141.611H117.154V163.454C117.154 170.253 121.216 173.899 126.777 174.141C132.852 174.498 137.302 170.62 137.302 163.454V141.611H143.359V163.454C143.36 174.498 135.931 179.968 126.778 179.598ZM163.529 178.875C158.956 178.875 153.626 178.875 149.055 178.875V141.494H163.529C176.526 141.494 182.453 150.598 182.566 159.82C182.822 169.285 176.76 178.875 163.529 178.875ZM163.529 147.195H155.111V173.17H163.529C172.79 173.17 176.76 166.493 176.634 159.82C176.526 153.508 172.551 147.195 163.529 147.195ZM227.109 178.994H221.657L216.586 165.762L212.504 153.263L208.296 165.89L203.356 178.996H198.048L184.176 141.612H190.984L200.646 170.378L210.532 141.612H214.483L224.512 170.378L234.033 141.612H240.838L227.109 178.994ZM273.857 178.994L270.157 171.104H249.497L245.907 178.994H239.482L256.54 141.611H263.222L280.295 178.994H273.857ZM259.871 147.805L251.855 165.648H267.924L259.871 147.805ZM297.118 163.583V178.875H291.058V163.583L276.345 141.738V141.494H283.628L294.022 157.996L304.894 141.494H312.215V141.738L297.118 163.583ZM330.518 145.74C325.429 145.74 321.734 147.805 321.734 151.443C321.734 155.088 325.944 156.062 330.992 156.783C338.79 157.882 346.35 159.936 346.35 168.312C346.35 176.691 338.55 179.84 330.518 179.84C323.216 179.84 317.65 177.659 314.189 171.348L318.767 168.311C321.478 172.799 326.184 174.497 330.626 174.497C335.202 174.497 340.29 173.045 340.29 168.311C340.29 164.306 335.825 162.854 330.518 162.123C322.976 161.154 315.805 159.207 315.805 151.2C315.805 143.433 323.581 140.523 330.518 140.523C335.951 140.523 341.518 141.851 344.74 146.834L339.926 149.87C338.057 147.322 334.471 145.74 330.518 145.74Z" fill="#2F39BF"/>
<path d="M210.733 191.261C208.81 189.933 206.43 189.246 203.637 189.246H197.595V208.482H203.637C206.43 208.482 208.81 207.749 210.733 206.375C211.786 205.642 212.609 204.589 213.159 203.306C213.708 202.024 214.029 200.467 214.029 198.772C214.029 197.078 213.754 195.566 213.159 194.284C212.609 193.001 211.786 191.994 210.733 191.261ZM201.12 192.543H203.042C205.148 192.543 206.887 192.956 208.215 193.78C209.68 194.65 210.412 196.345 210.412 198.772C210.412 201.291 209.68 203.032 208.215 203.993C206.933 204.818 205.239 205.276 203.088 205.276H201.165V192.543H201.12Z" fill="#2F39BF"/>
<path d="M217.691 189.063C217.096 189.063 216.592 189.292 216.226 189.658C215.814 190.07 215.631 190.528 215.631 191.124C215.631 191.719 215.86 192.223 216.226 192.635C216.638 193.047 217.141 193.231 217.736 193.231C218.332 193.231 218.835 193.002 219.247 192.635C219.659 192.223 219.842 191.719 219.842 191.124C219.842 190.528 219.613 190.025 219.247 189.658C218.789 189.246 218.286 189.063 217.691 189.063Z" fill="#2F39BF"/>
<path d="M219.339 194.971H215.951V208.528H219.339V194.971Z" fill="#2F39BF"/>
<path d="M231.149 196.116C230.142 195.2 228.997 194.65 227.716 194.65C225.839 194.65 224.282 195.291 223.092 196.574C221.856 197.856 221.261 199.459 221.261 201.429C221.261 203.352 221.856 204.955 223.047 206.283C224.237 207.566 225.839 208.207 227.716 208.207C229.043 208.207 230.142 207.841 231.057 207.108V207.428C231.057 208.573 230.737 209.444 230.142 210.039C229.547 210.634 228.723 210.955 227.716 210.955C226.159 210.955 225.152 210.36 223.962 208.711L221.627 210.955L221.673 211.047C222.177 211.734 222.955 212.421 223.962 213.108C224.969 213.749 226.251 214.069 227.761 214.069C229.776 214.069 231.424 213.428 232.614 212.237C233.804 211.001 234.445 209.352 234.445 207.337V194.971H231.103V196.116H231.149ZM230.233 204.085C229.638 204.772 228.86 205.093 227.899 205.093C226.937 205.093 226.159 204.772 225.564 204.085C224.969 203.398 224.694 202.528 224.694 201.429C224.694 200.329 224.969 199.413 225.564 198.726C226.159 198.039 226.937 197.719 227.899 197.719C228.86 197.719 229.638 198.039 230.233 198.726C230.828 199.413 231.149 200.284 231.149 201.429C231.149 202.528 230.828 203.398 230.233 204.085Z" fill="#2F39BF"/>
<path d="M240.213 194.971H236.825V208.528H240.213V194.971Z" fill="#2F39BF"/>
<path d="M238.565 189.063C237.97 189.063 237.466 189.292 237.1 189.658C236.688 190.07 236.505 190.528 236.505 191.124C236.505 191.719 236.734 192.223 237.1 192.635C237.512 193.047 238.015 193.231 238.61 193.231C239.206 193.231 239.709 193.002 240.121 192.635C240.533 192.223 240.716 191.719 240.716 191.124C240.716 190.528 240.487 190.025 240.121 189.658C239.617 189.246 239.114 189.063 238.565 189.063Z" fill="#2F39BF"/>
<path d="M247.491 191.307H244.149V194.971H242.227V198.085H244.195V203.719C244.195 205.459 244.561 206.742 245.248 207.474C245.935 208.207 247.171 208.574 248.91 208.574C249.459 208.574 250.009 208.574 250.558 208.528H250.695V205.413L249.505 205.459C248.681 205.459 248.132 205.322 247.903 205.047C247.628 204.772 247.491 204.177 247.491 203.261V198.085H250.65V194.971H247.491V191.307V191.307Z" fill="#2F39BF"/>
<path d="M269.189 189.292H265.802V208.528H269.189V189.292Z" fill="#2F39BF"/>
<path d="M302.606 203.673C302.011 204.36 301.37 204.955 300.912 205.276C300.454 205.597 299.859 205.734 299.127 205.734C298.12 205.734 297.296 205.368 296.655 204.635C296.014 203.902 295.648 202.94 295.648 201.795C295.648 200.65 295.968 199.688 296.609 198.956C297.25 198.223 298.074 197.856 299.081 197.856C300.18 197.856 301.324 198.543 302.331 199.688L304.574 197.536C303.109 195.612 301.232 194.742 298.989 194.742C297.113 194.742 295.51 195.429 294.183 196.757C292.855 198.085 292.214 199.78 292.214 201.795C292.214 203.81 292.901 205.505 294.183 206.833C295.51 208.161 297.113 208.848 298.989 208.848C301.461 208.848 303.43 207.795 304.803 205.826L302.606 203.673Z" fill="#2F39BF"/>
<path d="M316.705 196.849C316.201 196.162 315.56 195.612 314.736 195.246C313.912 194.833 312.997 194.65 311.944 194.65C310.021 194.65 308.511 195.337 307.321 196.757C306.176 198.131 305.627 199.826 305.627 201.841C305.627 203.902 306.268 205.596 307.504 206.879C308.74 208.161 310.388 208.802 312.402 208.802C314.691 208.802 316.567 207.886 317.987 206.054L318.078 205.963L315.835 203.81C315.652 204.039 315.332 204.36 315.057 204.589C314.736 204.909 314.416 205.138 314.05 205.322C313.546 205.596 312.951 205.688 312.31 205.688C311.349 205.688 310.571 205.413 309.976 204.864C309.426 204.36 309.106 203.673 309.014 202.803H318.032L318.078 201.566C318.078 200.696 317.941 199.826 317.712 199.047C317.529 198.268 317.163 197.536 316.705 196.849ZM309.243 200.055C309.426 199.413 309.701 198.864 310.113 198.452C310.571 197.994 311.166 197.765 311.898 197.765C312.722 197.765 313.363 197.994 313.775 198.452C314.187 198.864 314.416 199.413 314.462 200.055H309.243Z" fill="#2F39BF"/>
<path d="M329.705 195.978C328.652 195.108 327.233 194.65 325.448 194.65C324.304 194.65 323.251 194.879 322.29 195.383C321.42 195.841 320.55 196.574 320.001 197.536L320.047 197.581L322.244 199.688C323.159 198.268 324.121 197.765 325.448 197.765C326.181 197.765 326.73 197.948 327.188 198.314C327.645 198.681 327.874 199.184 327.874 199.78V200.421C327.05 200.146 326.181 200.055 325.357 200.055C323.663 200.055 322.29 200.467 321.237 201.245C320.184 202.024 319.68 203.169 319.68 204.635C319.68 205.917 320.138 206.925 321.008 207.703C321.878 208.436 322.976 208.802 324.304 208.802C325.585 208.802 326.821 208.299 327.92 207.383V208.482H331.262V199.78C331.262 198.131 330.758 196.849 329.705 195.978ZM323.663 203.306C324.029 203.032 324.578 202.894 325.265 202.894C326.089 202.894 326.959 203.077 327.828 203.398V204.726C327.096 205.413 326.089 205.78 324.899 205.78C324.304 205.78 323.846 205.642 323.526 205.367C323.205 205.093 323.068 204.772 323.068 204.36C323.114 203.948 323.297 203.581 323.663 203.306Z" fill="#2F39BF"/>
<path d="M343.942 196.253C342.98 195.2 341.653 194.65 339.959 194.65C338.632 194.65 337.533 195.017 336.709 195.795V194.971H333.367V208.528H336.755V201.016C336.755 200.009 336.984 199.184 337.487 198.589C337.945 197.994 338.632 197.719 339.501 197.719C340.28 197.719 340.875 197.948 341.287 198.497C341.699 199.001 341.928 199.734 341.928 200.65V208.482H345.315V200.65C345.361 198.772 344.857 197.307 343.942 196.253Z" fill="#2F39BF"/>
<path d="M262.094 195.978C261.041 195.108 259.622 194.65 257.836 194.65C256.692 194.65 255.639 194.879 254.678 195.383C253.808 195.841 252.938 196.574 252.389 197.536L252.435 197.581L254.632 199.688C255.548 198.268 256.509 197.765 257.836 197.765C258.569 197.765 259.118 197.948 259.576 198.314C260.034 198.681 260.263 199.184 260.263 199.78V200.421C259.439 200.146 258.569 200.055 257.745 200.055C256.051 200.055 254.678 200.467 253.625 201.245C252.572 202.024 252.069 203.169 252.069 204.635C252.069 205.917 252.526 206.925 253.396 207.703C254.266 208.436 255.365 208.802 256.692 208.802C257.974 208.802 259.21 208.299 260.308 207.383V208.482H263.65V199.78C263.65 198.131 263.147 196.849 262.094 195.978ZM256.051 203.306C256.417 203.032 256.967 202.894 257.653 202.894C258.477 202.894 259.347 203.077 260.217 203.398V204.726C259.484 205.413 258.477 205.78 257.287 205.78C256.692 205.78 256.234 205.642 255.914 205.367C255.593 205.093 255.456 204.772 255.456 204.36C255.502 203.948 255.685 203.581 256.051 203.306Z" fill="#2F39BF"/>
<path d="M280.954 208.802C275.506 208.802 271.066 204.36 271.066 198.91C271.066 193.459 275.506 189.017 280.954 189.017C286.401 189.017 290.841 193.459 290.841 198.91C290.841 204.36 286.447 208.802 280.954 208.802ZM280.954 192.452C277.429 192.452 274.545 195.337 274.545 198.864C274.545 202.39 277.429 205.276 280.954 205.276C284.478 205.276 287.362 202.39 287.362 198.864C287.362 195.337 284.524 192.452 280.954 192.452Z" fill="#2F39BF"/>
<path d="M177.715 208.693C176.787 208.693 176.046 208.4 175.491 207.813V208.517H173.699V197.301H175.523V201.253C176.12 200.741 176.851 200.485 177.715 200.485C178.835 200.485 179.752 200.874 180.467 201.653C181.182 202.432 181.539 203.413 181.539 204.597C181.539 205.781 181.182 206.762 180.467 207.541C179.742 208.309 178.824 208.693 177.715 208.693ZM176.051 206.389C176.424 206.858 176.936 207.093 177.587 207.093C178.238 207.093 178.75 206.858 179.123 206.389C179.496 205.92 179.683 205.322 179.683 204.597C179.683 203.872 179.496 203.274 179.123 202.805C178.75 202.336 178.238 202.101 177.587 202.101C176.936 202.101 176.424 202.336 176.051 202.805C175.678 203.274 175.491 203.872 175.491 204.597C175.491 205.322 175.678 205.92 176.051 206.389ZM190.543 200.677L186.159 211.621H184.239L185.455 208.613L182.351 200.677H184.431L186.479 206.341L188.559 200.677H190.543Z" fill="#2F39BF"/>
<path fill-rule="evenodd" clip-rule="evenodd" d="M151.711 105.654C150.906 104.796 150.245 104.121 149.617 103.417C147.24 100.747 145.313 97.7834 143.888 94.5028C143.66 93.9774 143.38 93.7864 142.801 93.7968C140.746 93.834 138.689 93.8167 136.633 93.8092C134.819 93.8038 133.858 92.8963 133.805 91.0918C133.768 89.8831 133.767 88.672 133.806 87.4639C133.864 85.6882 134.813 84.8 136.588 84.7976C138.071 84.7946 139.555 84.7971 141.133 84.7971C140.762 80.7529 140.827 76.8174 141.695 72.803C141.241 72.803 140.892 72.803 140.542 72.803C122.322 72.803 104.103 72.804 85.8827 72.8021C83.4018 72.8021 81.563 71.3518 81.1136 69.0566C80.5829 66.3466 82.6506 63.7572 85.4328 63.651C85.7153 63.6406 85.9982 63.6475 86.2806 63.6475C105.58 63.6475 124.879 63.6431 144.178 63.6644C144.89 63.6649 145.265 63.4376 145.617 62.8289C147.988 58.7202 151.101 55.266 154.924 52.4563C155.124 52.3089 155.316 52.1487 155.489 51.8053C155.177 51.8053 154.864 51.8053 154.551 51.8053C139.852 51.8053 125.153 51.8147 110.453 51.783C109.556 51.781 108.584 51.6227 107.775 51.2551C105.857 50.3838 104.905 48.1849 105.388 46.1472C105.865 44.1328 107.728 42.6548 109.832 42.6528C116.307 42.6458 122.783 42.6498 129.259 42.6498C141.106 42.6498 152.952 42.6438 164.799 42.6662C165.493 42.6672 165.83 42.4975 166.063 41.8053C167.266 38.2251 169.017 34.9197 171.211 31.848C171.415 31.5627 171.613 31.273 171.908 30.8498C171.424 30.8279 171.082 30.7982 170.74 30.7982C153.549 30.7957 136.357 30.8061 119.165 30.7699C118.198 30.7679 117.141 30.5719 116.284 30.1462C114.441 29.2303 113.591 27.0353 114.115 25.0974C114.685 22.9847 116.428 21.6516 118.655 21.6516C139.419 21.6491 160.183 21.6476 180.947 21.661C181.616 21.6615 182.177 21.5067 182.75 21.1604C188.072 17.9428 193.833 16.1522 200.049 15.7449C218.129 14.5595 234.315 26.4558 239.403 43.7126C239.693 44.6959 239.962 45.6907 240.153 46.6969C240.254 47.2273 240.47 47.461 240.979 47.6396C252.249 51.5905 259.734 59.3022 263.05 70.75C268.387 89.1746 257.908 108.078 240.079 113.344C237.283 114.17 234.424 114.641 231.512 114.657C218.362 114.729 205.212 114.798 192.062 114.81C166.056 114.833 140.05 114.82 114.044 114.8C113.266 114.799 112.435 114.691 111.719 114.406C109.698 113.6 108.642 111.493 109.044 109.32C109.421 107.281 111.271 105.73 113.421 105.654C113.652 105.647 113.883 105.652 114.115 105.652C126.244 105.652 138.373 105.652 150.503 105.652C150.83 105.654 151.158 105.654 151.711 105.654Z" fill="#2F39BF"/>
<path fill-rule="evenodd" clip-rule="evenodd" d="M103.082 93.8118C97.844 93.8118 92.6061 93.8128 87.3677 93.8113C85.2495 93.8103 84.3536 92.9326 84.3447 90.8379C84.3393 89.6292 84.3244 88.4201 84.3611 87.2125C84.4042 85.792 85.4071 84.8046 86.8301 84.8036C97.6909 84.7947 108.552 84.7942 119.413 84.8046C120.838 84.8056 121.862 85.8356 121.907 87.3038C121.948 88.691 121.949 90.0817 121.908 91.469C121.867 92.8522 120.73 93.8068 119.181 93.8098C115.586 93.8168 111.991 93.8123 108.397 93.8123C106.625 93.8118 104.854 93.8118 103.082 93.8118Z" fill="#2F39BF"/>
</svg>
